<?xml version="1.0" encoding="UTF-8"?>
<svg id="Layer_1" xmlns="http://www.w3.org/2000/svg" xmlns:xlink="http://www.w3.org/1999/xlink" xmlns:svg="http://www.w3.org/2000/svg" xmlns:sodipodi="http://sodipodi.sourceforge.net/DTD/sodipodi-0.dtd" xmlns:rdf="http://www.w3.org/1999/02/22-rdf-syntax-ns#" xmlns:ns1="http://sozi.baierouge.fr" xmlns:inkscape="http://www.inkscape.org/namespaces/inkscape" xmlns:dc="http://purl.org/dc/elements/1.1/" xmlns:cc="http://web.resource.org/cc/" version="1.1" viewBox="0 0 1732 650">
  <!-- Generator: Adobe Illustrator 29.3.1, SVG Export Plug-In . SVG Version: 2.1.0 Build 151)  -->
  <defs>
    <style>
      .st0 {
        fill: none;
        stroke: #ed1c24;
        stroke-miterlimit: 10;
        stroke-width: 3px;
      }
    </style>
  </defs>
  <g id="Layer_2">
    <path d="M533.1,561.5c42.9,6.8,85.7,13.6,128.6,20.3,48.3,7.6,96.6,15.3,144.9,22.9,2.1.3,4.2.7,6.4.4,8.6-1.3,15.2-12.9,7.8-19.7-7.8-7.2-15.7-14.3-23.5-21.5-10.1-9.2-20.2-18.4-30.3-27.6-2.8-2.6-8.5-6.4-7.9-10.4.4-3.2,3.1-6.9,4.5-9.7,8.3-15.8,16.6-31.6,25.1-47.3,4.3-7.9,8.6-15.8,13-23.6,2.5-4.4,4-8.2,3.8-13.4,0-4.2-1.5-8.2-2.8-12.1-.9-2.9-2.1-5.8-2.5-8.8-.3-2.5.6-4.2,1.8-6.3.9-1.6-.7.7-.2,0,.3-.4.6-.8.9-1.2,4.3-5.5,8.5-11,12.8-16.5,1.1-1.4,2.3-2.6,3.3-4.1,3.5-4.6,3.2-11.1,2.3-16.5-.3-1.6-.8-3-1.5-4.5,1,2.2-.4-1.2-.5-1.7-1-2.9-2-5.9-3.1-8.8-1.4-4-2.3-8.3-2.4-12.6,0-5.9-8.6-5.7-9,0v.2c2.9-.4,5.9-.8,8.8-1.2.3,1.7,0-1.1,0-1.1,0-1.5.2-3,.5-4.6.6-3.6,2.1-7,3.8-10.3,2.6-5.1,5.4-9.5,9.6-13.5,6.3-6.1,15.7-6.1,23.9-6.6,6.2-.4,12.4-.6,18.6-1.1,4-.3,8.1-.6,11.9-1.8,4.4-1.3,7.2-5.6,9-9.5,2.4-5.2,3.6-11,5.1-16.4.8-2.7,1.6-5.4,2.5-8.1,1.7-5,3.4-7.2,8.6-8.9,5.5-1.8,11.4-2.9,17-4.3,5.9-1.5,12.3-2.4,17.5-5.6,9.8-6.1,18-14.8,26.5-22.4,8.4-7.5,17.6-14.5,25.1-22.9,3.5-3.9,5.9-8,7.3-13,.2-.5.9-5,.5-2.4,0-.3,0-.7.2-1,.7-4.2,1.4-8.4,2.2-12.6,2.9-17.2,5.9-34.4,8.9-51.6,3.2-18.1,6.4-36.2,9.8-54.2,1.4-7.5,3.8-14.8-5-19.8-5.1-2.9-10.9,0-14.4,3.9-23.9,26.2-48.6,51.6-73.9,76.5-39.2,38.6-80.7,74.6-124,108.4-29.7,23.2-60.9,44.3-91.7,66.1-10.2,7.2-20.2,14.5-30.2,22-4.3,3.2-12.1,7-13.8,12.6-1.4,4.6,1.1,10.1,5.9,11.4,5.1,1.4,7.6-5.4,3.5-8.2-.2-.2-.5-.3-.8-.4-1.5,2.6-3,5.2-4.5,7.8,15,6.4,30.1,12.4,44.5,19.9,4.9,2.5,9.7,5.1,14.4,7.8,4.1,2.3,8.6,4.6,12,7.9,3.8,3.7-12.1,9.9-13.7,10.7-2.4,1.2-3.9,2-5.5,2.4-7.1,2.1-9.8-3-12.6-8.4-2.2-4.3-4.4-9-8-12.4-4.2-4.1-9.3-5.2-14.4-7.4-8.7-3.7-20.2.4-27.6,5.7-6,4.3-5.8,12.1-.4,16.3l31.9,24.6c5.6,4.3,11.3,8.7,16.9,13,2.4,1.8,5.7,3.7,7.5,6.1,1.5,2,2.1,5.2,2.8,7.6,1.4,4.8,2.4,9.3,2.5,14.3,0,5.1-1.9,9.9-3.7,14.6-2.1,5.7-4.8,11.3-8,16.4-3.3,5.2-12.1,6.2-17.5,8.1-6.6,2.4-11.6-.5-17.4-3.1-16-7-31.9-14-48.5-19.5-7.5-2.4-15-4.8-22.5-7.1-3.6-1.1,1.9.9-1.2-.4-1.2-.5-2.4-.8-3.6-1.1-5.5-1.3-11.1-1.6-15.9,1.7-2.9,2-4.8,4.9-6.9,7.6-3.4,4.4-6.7,8.8-10.1,13.2-9.6,12.6-19.3,25.2-28.9,37.8-4.5,5.9-9,11.8-13.5,17.7-3.1,4.1,3.7,9.3,7.1,5.5.2-.2.4-.4.5-.6,2.6-3.2.8-7.2-3.2-7.7-5.3-.6-8.5,9.8-8.3,13.5.3,6.2,6.4,10.1,12.1,10.6,5.8.4,5.7-8.6,0-9,.7,0-.5-.2-1-.3-1-.3-2.1-1.1-2.1-2.3s1.7-4,2.5-4.9c-1.1.4-2.1.9-3.2,1.3h0c-1.1-2.6-2.1-5.1-3.2-7.7-.2.2-.4.4-.5.6,2.4,1.8,4.7,3.6,7.1,5.5,15.1-19.8,30.2-39.6,45.4-59.4,2.8-3.7,5.7-7.4,8.5-11.1.2-.2,1.6-2,.7-.9,3.4-4.2,8.2-3.5,12.9-2,1.2.4.5.4,2.1.8,2.8.8-1.2-.4,1.4.4,3.7,1.1,7.4,2.3,11,3.5,8.3,2.6,16.6,5.2,24.7,8.4,13.4,5.3,27,10.8,39.9,17.1,7.4,3.6,15.5.9,22.8-1.6,4.1-1.4,8.2-3,11.8-5.4,4.2-2.7,6.4-7.4,8.5-11.7,4.9-9.8,9.5-20.6,9-31.7-.3-7.5-2.7-15.1-5.6-22-1.7-4-5.5-6.3-8.8-8.9-5-3.9-10-7.8-15.1-11.6-12.6-9.7-25.2-19.5-37.8-29.2.7.9,1.4,1.8,2.1,2.7-1.2-4,5.4-5.6,8.4-6.7,2.8-1,5.5-2.4,8.6-1.8,1.8.3,3.3,1.3,5,1.7,6,1.6,9.8,5,12.8,10.3,2.4,4.2,4.2,8.6,7.2,12.5,5.5,7,15.1,6.8,22.5,3.1,4.9-2.5,10.5-4.6,15.1-7.7,3.4-2.2,6-5.7,6.6-9.7.9-5.3-2.6-9.2-6.6-12.1-7.9-5.9-17.2-10.3-25.9-14.8-14.1-7.3-28.8-13.1-43.4-19.3-5.2-2.2-9.9,5.4-4.5,7.8.3,0,.5.2.8.4,1.2-2.7,2.3-5.5,3.5-8.2.4.1,0,.2,1.2-.8,2.1-1.9,4.6-3.5,6.8-5.2,4.3-3.2,8.6-6.4,12.9-9.6,7.6-5.6,15.2-11,22.9-16.4,14.3-10.1,28.8-20.1,43.2-30.2,39.4-27.9,77.1-58.1,113.5-89.8,37.9-33,73.4-68.7,108-105.1,7.9-8.3,15.7-16.7,23.5-25.2.6-.7,1.2-1.2,2-1.7,1.3-.8,2.9.3,3.4,1.6.6,1.6.8-3.6,0,0-.3,1.7-.7,3.5-1,5.2-1.5,8-3,16.1-4.5,24.1-5.8,32-11.3,64-16.7,96,0,.6-.2,1.2-.3,1.9-.2,1-.5,2.5-1.3,4.8-1,3-2.9,5.1-4.9,7.4-2.4,2.7-5.3,5.1-8,7.5-10.9,9.7-21.8,19.5-32.7,29.2-1.1,1-2.2,2-3.3,2.9,1.1-1-.3.2-1.2.8-1.8,1.2-3.7,2.9-5.7,3.7-5.6,2.2-11.9,3.3-17.8,4.7-6,1.5-12.1,2.7-17.8,5.2-8,3.6-10,13.1-12.1,20.8-1.3,4.6-2.5,9.4-4.1,13.9-1.4,4.1-3.1,6.2-7.3,7-4,.7-8.2.9-12.3,1.1-15.1.8-32.2-.3-43.8,10.9-8.9,8.5-17.7,24.7-15.3,37.3,1,5.3,8.5,3.6,8.8-1.2v-.2h-9c0,7.7,2.7,14.9,5.2,22,1.8,5.3,6,13.6.3,18.4-1.4,1.2-2.6,3.3-3.7,4.8-2.5,3.2-5,6.5-7.5,9.7-4.1,5.3-8.1,10.1-7.8,17.2.3,7.2,4.5,13.7,5.3,20.9.5,4.7-2.2,8.2-4.4,12.1-2.3,4-4.5,8.1-6.7,12.1-9.1,16.6-17.9,33.4-26.8,50.2-2,3.8-4,7.7-6,11.5-4.3,8.3-2.2,14.5,3.9,20.9,6.6,7,14.2,13.2,21.3,19.6,10.8,9.9,21.6,19.8,32.4,29.6,2.1,2,8,5.7,2.2,8-1.5.6-2,.3-3.8,0-48.8-7.7-97.7-15.5-146.5-23.2-42.2-6.7-84.4-13.4-126.7-20-5.7-.9-8.2,7.7-2.5,8.6h0l.7.9Z"/>
    <path class="st0" d="M418.5,444.8"/>
  </g>
</svg>